# xmcd
#
# Track frame offsets:
#	151
#	12794
#	25937
#	39263
#	53359
#	68245
#	79397
#	93057
#	108174
#	123831
#	133972
#	147901
#	161534
#	175350
#	188826
#	203375
#	217890
#	232903
#	247233
#	261097
#
# Disc length: 3670 seconds
#
# Revision: 1
# Processed by: cddbd v1.5.1PL0 Copyright (c) Steve Scherf et al.
# Submitted via: audiograbber 1.83.01
#
DISCID=040e5414
DTITLE=Various Artist - When Blues Meets Jazz
DYEAR=2001
DGENRE=Blues
TTITLE0=Big Joue Turner - The Chill Is On
TTITLE1=Dinah Washington - Chewin' Woman Blues
TTITLE2=Jimmy Rushing - Brand New Wagon
TTITLE3=Billie Holiday - Long Gone Blues
TTITLE4=Louis Armstrong and Jack Teagarden - Please Stop Playing Those Blues
TTITLE5=Sarah Vaughan - No Smoke Blues
TTITLE6=Woody Herman - River Bed Blues
TTITLE7=Maxine Sullivan - St. Louis Blues
TTITLE8=Teddy Bunn - Evil Man's Blues
TTITLE9=Wingy Manone - Corrine Corrina
TTITLE10=Mildred Bailey - That Ain't Right
TTITLE11=Fats Waller - Bessie, Bessie, Bessie
TTITLE12=Ella Fitzgerald - Gulf Coast Blues
TTITLE13=Lil Green - Why Don't You Do Right
TTITLE14=Anita O'Day - Blues For Bojangles
TTITLE15=Nat King Cole - Chant For The Blues (Dog Gone Unlucky Blues)
TTITLE16=Hot Lips Page - Uncle Sam's Blues
TTITLE17=Billy Eckstine - Stormy Monday Blues
TTITLE18=Billy Valentine with Johnny Moore's Three Blazers - How Blue Can You G
TTITLE18=et?
TTITLE19=Lil Hardin Armstrong - Bluer Than Blue
EXTD=
EXTT0=
EXTT1=
EXTT2=
EXTT3=
EXTT4=
EXTT5=
EXTT6=
EXTT7=
EXTT8=
EXTT9=
EXTT10=
EXTT11=
EXTT12=
EXTT13=
EXTT14=
EXTT15=
EXTT16=
EXTT17=
EXTT18=
EXTT19=
PLAYORDER=
